<?xml version="1.0" standalone="no"?><svg xmlns="http://www.w3.org/2000/svg" viewBox="0 0 1440 320" style="user-select: auto;"><path fill="black" fill-opacity="1" d="M0,96L48,90.7C96,85,192,75,288,101.3C384,128,480,192,576,224C672,256,768,256,864,213.3C960,171,1056,85,1152,80C1248,75,1344,149,1392,186.7L1440,224L1440,320L1392,320C1344,320,1248,320,1152,320C1056,320,960,320,864,320C768,320,672,320,576,320C480,320,384,320,288,320C192,320,96,320,48,320L0,320Z" style="user-select: auto;"></path></svg>